# xmcd
#
# Track frame offsets:
#	150
#	15857
#	30184
#	45455
#	61930
#	77105
#	91182
#	107183
#	124253
#	141990
#	160039
#	176798
#	192453
#
# Disc length: 2773 seconds
#
# Revision: 652597560
# Processed by: cddbd v1.5.2PL0 Copyright (c) Steve Scherf et al.
# Submitted via: EZCDAudioConverter 8.5.0.1
#
DISCID=9f0ad30d
DTITLE=Rodney Atkins - Take A Back Road
DYEAR=2011
DGENRE=Country
TTITLE0=Take A Back Road
TTITLE1=He's Mine
TTITLE2=Family
TTITLE3=The Corner
TTITLE4=She's A Girl Ain't She
TTITLE5=She'd Rather Fight
TTITLE6=Feet
TTITLE7=Cabin In The Woods
TTITLE8=Just Wanna Rock 'N' Roll
TTITLE9=Growing Up Like That
TTITLE10=Tips
TTITLE11=Lifelines
TTITLE12=Farmer's Daughter
EXTD=
EXTT0=
EXTT1=
EXTT2=
EXTT3=
EXTT4=
EXTT5=
EXTT6=
EXTT7=
EXTT8=
EXTT9=
EXTT10=
EXTT11=
EXTT12=
PLAYORDER=
